<svg xmlns="http://www.w3.org/2000/svg" xmlns:xlink="http://www.w3.org/1999/xlink" viewBox="0 0 1497.09 916.48"><defs><style>.cls-1{fill:none;}.cls-2{isolation:isolate;}.cls-3{fill:#b9d9eb;}.cls-4{clip-path:url(#clip-path);}.cls-5{fill:url(#Degradado_sin_nombre_7);}.cls-6{fill:url(#Degradado_sin_nombre_7-2);}.cls-7{fill:url(#linear-gradient);}.cls-8{fill:#f01;}.cls-9{fill:#474747;}.cls-10{fill:#fff;}.cls-11{mix-blend-mode:multiply;}.cls-12{fill:url(#linear-gradient-2);}.cls-13{fill:url(#linear-gradient-3);}.cls-14{fill:#8f9aa5;}.cls-15{fill:#e1e1e1;}.cls-16{fill:#8e99a4;}</style><clipPath id="clip-path"><rect className="cls-1" y="0.71" width="1497.09" height="915.78"/></clipPath><linearGradient id="Degradado_sin_nombre_7" x1="947.35" y1="782.41" x2="988.69" y2="268.89" gradientTransform="matrix(-1.16, 0.01, 0, 1, 2480.46, -3.44)" gradientUnits="userSpaceOnUse"><stop offset="0.45" stop-color="#fff" stop-opacity="0"/><stop offset="1" stop-color="#fff"/></linearGradient><linearGradient id="Degradado_sin_nombre_7-2" x1="2153.89" y1="752.89" x2="2195.24" y2="239.37" xlink:href="#Degradado_sin_nombre_7"/><linearGradient id="linear-gradient" x1="1156.43" y1="1130.62" x2="1203.31" y2="548.31" gradientTransform="matrix(-1.16, 0, 0, 1, 2484.14, 3.71)" gradientUnits="userSpaceOnUse"><stop offset="0.45" stop-color="#fff" stop-opacity="0"/><stop offset="1" stop-color="#fff" stop-opacity="0.7"/></linearGradient><linearGradient id="linear-gradient-2" x1="1789.5" y1="301.69" x2="1715.6" y2="847.81" gradientTransform="matrix(-1, 0, 0, 1, 2281.87, 0)" gradientUnits="userSpaceOnUse"><stop offset="0.74" stop-color="#fff"/><stop offset="0.78" stop-color="#f7fbfd"/><stop offset="0.83" stop-color="#e2f0f8"/><stop offset="0.89" stop-color="#bfdfef"/><stop offset="0.91" stop-color="#b1d8ec"/></linearGradient><linearGradient id="linear-gradient-3" x1="1510.78" y1="776.86" x2="1534.23" y2="627.35" gradientTransform="matrix(-1, 0, 0, 1, 2281.87, 0)" gradientUnits="userSpaceOnUse"><stop offset="0.18" stop-color="#fff"/><stop offset="0.31" stop-color="#ddeef7"/><stop offset="0.45" stop-color="#c5e2f1"/><stop offset="0.57" stop-color="#b6dbed"/><stop offset="0.67" stop-color="#b1d8ec"/></linearGradient></defs><g className="cls-2"><g id="Layer_1" data-name="Layer 1"><rect className="cls-3" y="0.71" width="1497.09" height="915.78"/><g className="cls-4"><path className="cls-5" d="M2114.43,587.52c-53.71-76.93-173-106.06-260.19-63.52-27.38-60.85-81.82-110.58-147.53-134.76s-141.83-22.53-206.29,4.51c-.76.32-36.93-37.42-40.91-40.83-14.9-12.77-30.87-24.74-48.55-33.71-48.88-24.8-99.92-33.5-154.77-24.47-47.6,7.84-92.68,30.25-125.52,63.5A183.73,183.73,0,0,0,1098,402.82c-45.51-19.11-99.83-19-145.25.4s-81.17,57.61-95.61,102.27c-95.53-8.83-194.58,35.36-247.35,110.36-3.09,4.4-3.07,10.11,4.43,10.08l1514.65-7.46Z"/><path className="cls-6" d="M713.65,564.89c-53.72-76.93-173-106-260.2-63.52-27.38-60.84-81.81-110.57-147.52-134.76s-141.83-22.53-206.3,4.51c-.76.32-36.92-37.42-40.9-40.83-14.9-12.77-30.88-24.73-48.56-33.7-48.88-24.8-99.91-33.51-154.77-24.47-47.59,7.84-92.67,30.25-125.52,63.5a183.8,183.8,0,0,0-32.66,44.58c-45.51-19.11-99.83-19-145.25.4s-81.17,57.6-95.6,102.27C-639.16,474-738.22,518.23-791,593.22c-3.1,4.4-3.07,10.12,4.42,10.08l1514.65-7.45Z"/><path className="cls-7" d="M1970.39,915.18c-60.48-87.53-195.6-121.22-294.69-73.48-30.7-69.15-92.15-125.84-166.53-153.63s-160.7-26.34-234,4c-.87.36-41.66-42.63-46.16-46.53-16.82-14.56-34.87-28.22-54.87-38.48-55.29-28.4-113.11-38.56-175.36-28.62-54,8.63-105.26,33.79-142.69,71.31a208.4,208.4,0,0,0-37.28,50.37c-51.5-21.93-113.1-22.06-164.71-.36s-92.36,64.87-109,115.43c-108.28-10.55-220.84,39-281.09,123.76-3.54,5-3.54,11.45,5,11.45H1986.6Z"/><path d="M933.74,584.2c-66.59-10.44-149.09-22.48-240.43-33.84-197.15-24.53-372.67-29-421.29-29.85v-.17s117.82-7.78,204-55.57c75.72-42,454.27-333.52,478.53-350.43C982,95.17,1006,91.28,1029.29,91.28h120.32S941.26,563.56,933.74,584.2Z"/><path className="cls-8" d="M841.43,449c0-7.48,3.88-9.11,11.32-4.88,13.25,7.49,27.47,15.29,27.47,15.29.33-4.23,4.21-7.8,12.29-6.18,7.43,1.95,15.84,3.58,15.84,3.58s-4.53-10.08-6.47-14.64c-3.55-8.13-.32-12.36,3.56-13.34,0,0-5.17-3.57-8.41-5.85-7.11-5.21-5.49-10.09,1.62-13l21.66-9.43c-3.88-2.28-8.41-8.46-3.23-15.62,4.84-7.15,12.28-17.24,12.28-17.24H907.7c-7.76,0-9.7-6.5-9.7-11.06,0,0-12.93,9.11-22,15.29-7.76,5.21-14.54,0-13.58-8.78,1.94-14,3.56-29.61,3.56-29.61-4.85,3.26-12.93,3.26-16.49-4.88-5.17-11.71-11.63-25.05-11.63-25.05s-6.14,13.67-11.32,25.05c-3.55,7.81-11.63,7.81-16.48,4.88,0,0,1.61,15.62,3.55,29.61,1.3,9.11-5.82,14-13.57,8.78-9-6.18-22-15.29-22-15.29,0,4.56-1.94,10.74-9.7,11.06H746.72s7.43,10.09,12.28,17.24a10.71,10.71,0,0,1-3.23,15.62s12,5.53,21.34,9.43c7.11,2.93,8.72,7.81,1.29,13-3.23,2.28-8.41,5.85-8.41,5.85,3.56,1.3,7.12,5.21,3.56,13.34-1.94,4.56-6.47,14.64-6.47,14.64s8.41-1.95,15.84-3.58c8.09-1.95,11.64,1.95,12.29,6.18,0,0,13.9-7.8,27.47-15.29C829.8,439.9,834,441.53,834,449v18.87c0,11.06-1.94,22.77-6.14,29.28-52.37-5.85-94.72-47.17-95-101.82,0-56.29,46.87-101.83,104.41-101.83s104.41,45.54,104.41,101.83c0,52.7-40.73,95.64-92.77,101.17v13.66c61.09-5.53,108.94-54.65,108.94-114.83,0-63.77-54-115.49-120.58-115.49S716.66,331.57,716.66,395.34c0,56.28,41.7,102.8,97.3,113.21,9.37,1.95,15.19,3.25,20.36,9.43,5.82-11.06,7.44-34.16,7.44-47.17V449Z"/><path className="cls-9" d="M1104.19,616.63H1123a0,0,0,0,1,0,0v51.69a0,0,0,0,1,0,0h-18.85a3.36,3.36,0,0,1-3.36-3.36V620a3.36,3.36,0,0,1,3.36-3.36Z" transform="translate(2223.87 1284.96) rotate(-180)"/><path className="cls-10" d="M0,845.92c496.89,0,1101.26-174.07,1101.26-174.07V612.6s-175.63-33.34-408-62.24c-78.08-9.72-182-19.78-285.57-25.49C203.18,513.58,0,523.72,0,523.72Z"/><path d="M533.15,796.47C362.78,824.39,174.74,845.92,0,845.92V796.47Z"/><g className="cls-11"><path className="cls-12" d="M1101.26,671.85S496.89,845.92,0,845.92V792.67c496.89,0,1101.26-174.07,1101.26-174.07Z"/></g><g className="cls-11"><path className="cls-13" d="M913.05,720.56C863.36,732.1,806.3,744.72,741.47,758c-92.58-63.21-141.53-110.9-141.53-110.9l281,21.68Z"/></g><path className="cls-10" d="M1015,581.62c-9.05,1.75-242.74,44.88-298.88,57.66s-116.16,7.78-116.16,7.78,46.69-13.5,63.36-15.73c14.12-1.88,262.82-45.85,341.67-60,26.68-4.8,39.6-4.59,47.31-4.38,20.63.56,112.55,11.15,112.55,11.15S1073.68,577,1058.12,577,1022.92,580.08,1015,581.62Z"/><path className="cls-14" d="M599.94,647.06s60,5,116.16-7.78,289.83-55.91,298.88-57.66c7.94-1.54,27.58-4.59,43.14-4.59s106.71,1.05,106.71,1.05-116.37,37.3-176.39,56.76c-39.66,12.85-107.53,33.9-107.53,33.9H676.64C627.73,668.74,599.94,647.06,599.94,647.06Z"/><path className="cls-15" d="M434.54,585.09a7.63,7.63,0,0,1,7.62,7.62v93.82a7.62,7.62,0,0,1-7.62,7.61h-53.8a7.62,7.62,0,0,1-7.62-7.61V592.71a7.63,7.63,0,0,1,7.62-7.62h53.8m0-1.33h-53.8a9,9,0,0,0-8.95,9v93.82a9,9,0,0,0,8.95,9h53.8a9,9,0,0,0,8.95-9V592.71a9,9,0,0,0-8.95-9Z"/><rect className="cls-16" x="33.61" y="626.47" width="17.79" height="26.3" rx="7.12"/><rect className="cls-16" x="70.12" y="626.47" width="17.79" height="26.3" rx="7.12"/><rect className="cls-16" x="106.62" y="626.47" width="17.79" height="26.3" rx="7.12"/><rect className="cls-16" x="143.13" y="626.47" width="17.79" height="26.3" rx="7.12"/><rect className="cls-16" x="179.63" y="626.47" width="17.79" height="26.3" rx="7.12"/><rect className="cls-16" x="216.14" y="626.47" width="17.79" height="26.3" rx="7.12"/><rect className="cls-16" x="252.64" y="626.47" width="17.79" height="26.3" rx="7.12"/><rect className="cls-16" x="289.15" y="626.47" width="17.79" height="26.3" rx="7.12"/><rect className="cls-16" x="325.65" y="626.47" width="17.79" height="26.3" rx="7.12"/></g></g></g></svg>