<svg xmlns="http://www.w3.org/2000/svg" xmlns:xlink="http://www.w3.org/1999/xlink" width="376" height="230" viewBox="0 0 376 230">
    <defs>
        <path id="ri924mvnca" d="M0 0H376V230H0z"/>
        <path id="tri30y0olc" d="M0 0.426L100.35 0.426 100.35 8.385 0 8.385z"/>
    </defs>
    <g fill="none" fill-rule="evenodd">
        <g>
            <g>
                <g transform="translate(-532 -2505) translate(140 2077) translate(392 428)">
                    <mask id="yu6dpdu0hb" fill="#fff">
                        <use xlink:href="#ri924mvnca"/>
                    </mask>
                    <use fill="#000" xlink:href="#ri924mvnca"/>
                    <g mask="url(#yu6dpdu0hb)">
                        <g>
                            <path fill="#D0D1D2" d="M24.887 26.565c3.534-4.933 7.459-9.677 11.78-14.18C41.003 7.868 45.587 3.738 50.379 0l-5.126 20.687-20.366 5.877z" transform="translate(138 51)"/>
                            <path fill="#595A5C" d="M60.493 35.498c-6.013-.612-12.06-1.66-18.095-3.174-6.055-1.519-11.902-3.45-17.515-5.76l20.37-5.876 15.24 14.81z" transform="translate(138 51)"/>
                            <path fill="#919395" d="M50.379.003c2.479 5.547 4.6 11.338 6.314 17.355 1.72 6.038 2.981 12.098 3.8 18.144l-15.24-14.813L50.38.003zM17.692 69.087c-3.57-4.906-6.841-10.129-9.762-15.655C5 47.887 2.513 42.222.463 36.48L18.431 47.78l-.739 21.307z" transform="translate(138 51)"/>
                            <path fill="#595A5C" d="M37.137 37.773c-2.436 5.565-5.295 11.027-8.591 16.335-3.307 5.326-6.94 10.325-10.856 14.982l.742-21.31 18.705-10.007z" transform="translate(138 51)"/>
                            <path fill="#D0D1D2" d="M.465 36.483c6.007-.659 12.138-.898 18.355-.68 6.237.218 12.355.885 18.322 1.97l-18.71 10.006L.465 36.483z" transform="translate(138 51)"/>
                            <path fill="#595A5C" d="M55.656 89.113c-5.739 1.9-11.686 3.417-17.812 4.506-6.146 1.088-12.267 1.719-18.328 1.906L35.749 81.82l19.907 7.293z" transform="translate(138 51)"/>
                            <path fill="#919395" d="M32.07 60.825c4.506 4.052 8.785 8.477 12.785 13.272 4.01 4.81 7.614 9.83 10.804 15.018L35.748 81.82 32.07 60.825z" transform="translate(138 51)"/>
                            <path fill="#D0D1D2" d="M19.518 95.523c1.235-5.952 2.903-11.894 5.031-17.775 2.133-5.901 4.654-11.55 7.524-16.925l3.676 20.997-16.23 13.703z" transform="translate(138 51)"/>
                            <path fill="#919395" d="M86.316 58.97c.022 6.08-.382 12.24-1.247 18.436-.868 6.222-2.167 12.274-3.86 18.132l-7.937-19.77L86.316 58.97z" transform="translate(138 51)"/>
                            <path fill="#D0D1D2" d="M52.292 72.799c5.223-3.058 10.725-5.789 16.493-8.131 5.788-2.354 11.645-4.25 17.535-5.701l-13.048 16.8-20.98-2.968z" transform="translate(138 51)"/>
                            <path fill="#595A5C" d="M81.207 95.534c-5.243-3.023-10.343-6.452-15.245-10.307-4.918-3.867-9.479-8.023-13.673-12.431l20.983 2.97 7.935 19.768z" transform="translate(138 51)"/>
                            <path fill="#919395" d="M67.3 20.311c5.753 1.86 11.452 4.149 17.043 6.892 5.609 2.753 10.928 5.864 15.94 9.297l-21.138 1.485L67.3 20.311z" transform="translate(138 51)"/>
                            <path fill="#D0D1D2" d="M69.858 57.147c-1.278-5.944-2.157-12.053-2.589-18.296-.437-6.267-.418-12.458.03-18.543l11.847 17.678-9.288 19.161z" transform="translate(138 51)"/>
                            <path fill="#595A5C" d="M100.28 36.5c-4.477 4.085-9.295 7.905-14.452 11.404-5.175 3.514-10.512 6.593-15.972 9.244l9.289-19.162L100.28 36.5z" transform="translate(138 51)"/>
                            <g transform="translate(138 51) translate(0 106.785)">
                                <mask id="j6kajugz5d" fill="#fff">
                                    <use xlink:href="#tri30y0olc"/>
                                </mask>
                                <path fill="#FFF" d="M83.807 4.418c0 2.41 1.665 3.967 4.114 3.967 2.279 0 3.657-1.55 3.84-3.08l.024-.187h-.824l-.025.14c-.261 1.468-1.417 2.382-3.015 2.382-2.36 0-3.302-1.668-3.302-3.23 0-1.904 1.368-3.238 3.33-3.238 1.494 0 2.569.717 2.874 1.92l.034.126h.82l-.045-.202c-.374-1.647-1.717-2.59-3.684-2.59-2.787 0-4.141 2.07-4.141 3.992zm10.42-3.83v7.637h6.123v-.748h-5.336V4.643h5.064v-.734h-5.064V1.334h5.275V.588h-6.061zm-13.66 0V6.96c-.49-.594-5.494-6.372-5.494-6.372h-.788v7.637h.776V1.852c.487.595 5.493 6.373 5.493 6.373h.79V.588h-.777zm-19.34 7.637h.781V.588h-.78v7.637zM54.13.588v7.637h5.459v-.748h-4.667V.588h-.792zm-7.158 0v7.637h5.468v-.748h-4.678V.588h-.79zm21.325 1.057c.239.527 1.406 3.102 1.578 3.485H66.71c.174-.383 1.349-2.958 1.586-3.485zM67.93.588l-3.487 7.637h.87l1.067-2.36h3.823c.08.18 1.076 2.36 1.076 2.36h.864L68.665.588h-.735zM40.68 1.645l1.577 3.485h-3.165c.176-.383 1.348-2.958 1.588-3.485zM40.314.588l-3.49 7.637h.87l1.067-2.36h3.822l1.08 2.36h.862L41.047.588h-.733zm-11.592.746c1.199 0 1.782.435 1.782 1.33 0 1.004-.62 1.492-1.894 1.492H25.6V1.334h3.122zM24.811.588v7.637h.789V4.904h3.073c1.353 0 1.671.272 1.706 1.46.028 1.24.083 1.647.247 1.81l.05.05h.816l-.13-.245c-.123-.24-.166-.712-.179-1.946-.01-.756-.422-1.305-1.075-1.547.852-.386 1.2-1.16 1.2-1.797 0-1.413-.858-2.1-2.622-2.1h-3.875zm-6.047 1.057l1.589 3.485h-3.166c.173-.383 1.34-2.958 1.577-3.485zM18.41.588l-3.49 7.637h.858l1.079-2.36h3.822l1.065 2.36h.877L19.13.588h-.721zm-10.362 0v.746h2.938v6.89h.782v-6.89h2.937V.588H8.048zM0 5.718C0 6.472.22 7.03.66 7.474c.585.592 1.626.89 2.93.89.732 0 3.237-.161 3.237-2.252 0-1.84-1.668-2.013-3.142-2.16l-.001-.002c-1.518-.153-2.642-.322-2.642-1.362 0-.515.264-.887.805-1.14.56-.259 1.162-.296 1.787-.296.482 0 1.363.075 1.86.574.231.234.35.604.35.967l.765.009c0-.56-.177-1.125-.53-1.476C5.44.58 4.364.444 3.572.444c-1.086 0-2.158.235-2.815.897C.414 1.688.24 2.11.24 2.59c0 1.802 1.822 1.95 3.252 2.079.679.061 1.318.118 1.791.328.502.22.736.586.736 1.149 0 .36-.118.66-.351.894-.556.558-1.707.62-2.126.62-1.034 0-1.864-.227-2.305-.669-.318-.318-.48-.714-.484-1.274L0 5.717z" mask="url(#j6kajugz5d)"/>
                            </g>
                        </g>
                    </g>
                </g>
            </g>
        </g>
    </g>
</svg>
